<?xml version="1.0" encoding="UTF-8"?>
<svg id="Layer_1" data-name="Layer 1" xmlns="http://www.w3.org/2000/svg" viewBox="0 0 1392.65 315.06">
  <defs>
    <style>
      .cls-1 {
        fill: #df3316;
        stroke-width: 0px;
      }
    </style>
  </defs>
  <path class="cls-1" d="M239.61,176.44c5.4-1.9,10.8-3.5,16-5.7,14.5-6.2,26.1-16.3,36.7-27.9,22.2-24.4,44.2-49,67.1-72.7,14.3-14.9,29.7-28.8,47.6-39.4,7.15-4.25,15.41-6.82,23.45-9.42.7-.23,1.41-.41,2.14-.5,2.52-.31,5.79-.11,9.01.72,7.7,1.8,13.5,6.3,15,14.3,1.6,8.2-2,15-8.8,19.3-10.1,6.4-20.7,12-31.3,17.7-24.4,13-46.8,28.8-67.4,47.1-28.1,25-45.7,55.2-50.2,93.1-5,42-30.9,68.8-67.6,85.6-47.2,21.7-95.7,20.4-144.3,4.8-28.3-9.1-54.3-22.8-75.4-44.4-3.8-3.9-7.4-8.3-9.8-13.1-5.4-10.6,1.9-20.9,13.8-19.2,6.5.9,13.1,2.9,18.9,5.9,12.9,6.6,25.3,14,37.9,21.2,22.1,12.8,44.6,24.5,70.3,28.8,33,5.5,64.8,2.5,94.5-13.8,13.6-7.5,24.9-17.8,32.1-32,10.9-21.3,3.8-43.7-17.4-54.8-4-2.1-8.1-3.8-12.3-5.7h0v.1Z"/>
  <path class="cls-1" d="M44.31,214.14c18.3,4,35.4,7.8,53.5,11.7-2-5.3-3.2-10.1,1-12.7,2.9-1.7,7.2-1.1,10.8-.3,2.5-2,4.9-3.9,7.6-6.1-.9-6.7.8-10.4,5.8-11.9,3.8-1.2,6.1.3,9.2,5.8,2.7-.9,5.5-1.8,8.5-2.8,0-4,.7-7.9,5.7-8.9,4.5-.9,7.1,1.9,9.1,5.5,3.5-1.6,7.2-2.5,7-7.9,0-1.7,3.6-5.1,5.5-5,2.5,0,5.2,2.5,7.5,4.3.7.5.6,2.1.7,2.7,4.1-.5,7.9-1,11.8-1.5.2-6.5,2.5-9.3,7.5-9.1s7.4,3.5,7.3,10.5c1.4.5,3,1.1,4.7,1.7.7-.9,1.3-2.2,2.2-2.5,2.7-.9,5.8-2.5,8.1-1.7,2,.6,3.3,4,4.8,6.2.5.8.7,2.3,1.3,2.4.8.2,2.1-.3,2.8-1,5.2-5,10.8-3.7,13.5,3,.7,1.6,2,3.4,3.5,4.2,10.9,5.9,14.6,17.4,8.7,28.5-6,11.3-15.7,18.9-26.8,24.6-33.2,16.9-67.3,16-101.8,4.7-28.5-9.3-53.2-25.7-77.8-42.1-.3-.2-.5-.7-1.6-2.2h0l-.1-.1ZM141.01,204.04c-2,2.4-4.1,4-3.8,5,.3,1.5,2.2,3.5,3.7,3.8,1.1.2,3.4-2,3.6-3.4.2-1.2-1.7-2.8-3.5-5.4h0ZM216.91,230.94c1.9-2.5,3.9-3.9,3.8-5.2-.1-1.3-2.5-3.7-3.4-3.5-1.6.3-3.5,2.1-4,3.7-.3.9,1.8,2.6,3.7,5h-.1ZM170.21,218.44c-1.6,2.6-3.4,4.2-3.3,5.7.1,1.4,2.2,2.6,3.5,3.9,1.3-1.4,3.5-2.7,3.8-4.3.2-1.2-2-2.8-3.9-5.2h0l-.1-.1ZM166.91,201.84c-2.3-1.7-3.8-3.6-4.9-3.3-1.5.3-2.7,2.1-4.1,3.3,1.2,1.3,2.3,3.6,3.6,3.7,1.3.1,2.9-1.8,5.3-3.7h.1ZM201.01,227.94c-2.8-2-4.2-3.8-5.6-3.7-1.5,0-2.8,2-4.2,3.1,1.2,1.3,2.3,3.3,3.8,3.6,1.3.3,3-1.4,6-2.9h0v-.1ZM237.61,216.04c-2.6-2-4.1-3.9-5.4-3.8-1.4,0-2.7,2.1-4,3.3,1.1,1.2,2.2,3.3,3.4,3.4,1.4.2,3.1-1.4,5.9-2.9h.1ZM211.71,203.94v-1.8c-1.7-.7-3.3-2.1-4.7-1.9-1.2.2-2.3,2.1-3.4,3.3,1.3,1.2,2.5,3.3,3.9,3.4,1.3,0,2.8-1.9,4.2-2.9h0v-.1ZM120.91,219.34c-2.6-2-4.1-4-5.3-3.9-1.4.2-3.1,2.2-3.5,3.7-.2.8,1.9,3.2,3,3.3,1.4.1,3-1.5,5.8-3.1h0ZM186.81,198.34c-2.2-1.8-3.5-3.8-4.9-3.8-1.1,0-3.3,2.3-3.2,3.4.1,1.4,1.9,3.3,3.3,3.8.9.3,2.5-1.7,4.8-3.3h0v-.1ZM146.21,221.24c-1.5,2.3-3.3,3.8-3.1,4.9.3,1.5,2.2,2.6,3.4,3.8,1.2-1.3,3-2.6,3.3-4.1.2-1-1.8-2.4-3.6-4.6h0Z"/>
  <path class="cls-1" d="M156.81,119.84c6-10.6,11-21.5,17.9-31.1,13.9-19.7,32.5-31.7,57.7-30.5,3.8.2,7.5,1.1,11.3,1.7,3,.5,3.8,2.4,3.1,5.1-4.7,20.2-22.1,41.5-48,44-.7,0-1.3.1-2,.1-17-.8-23,2.9-28.7,25.6-1.9,7.8-1.5,16.2-1.9,24.3-.2,5.2-1.8,7.6-5.7,7.5-4.5-.2-5.5-3-5.6-7.1-.3-12.1-2.4-23.7-11-33.3-6.4-7.1-14-10.5-23.4-10.1-12.7.6-24.5-1.7-35.2-8.8-11-7.3-17.5-18-22.9-29.6-2.1-4.5,1.2-6.2,4.9-7.3,19.1-5.6,37.2-2.8,53.2,8.7,7.9,5.7,14.4,13.7,21,21.1,5.7,6.4,10.6,13.5,15.4,19.8h0l-.1-.1Z"/>
  <path class="cls-1" d="M24.61,145.24c28.3.8,54.3,20.1,62.2,47,.9,3,1.5,6-1.7,8s-5.9,1.4-8.4-1.5c-4.1-4.8-9.7-5.4-15.5-5-12.2.8-23.9-.7-34.4-7.5-11.4-7.4-19.3-17.6-24.7-30-1.7-3.9-.9-6.5,3.5-7.4,6.3-1.3,12.7-2.4,19-3.6h0Z"/>
  <path class="cls-1" d="M134.71,50.14c0-23,7.7-36.1,19.8-47.1,4.8-4.4,7-4.1,10.8,1.4,13.4,19.2,17.1,44.2.3,65.2-2.8,3.5-5.8,6.9-9.1,9.8-4.5,4-7.1,3.6-10.5-1.5-7-10.2-11.3-21.4-11.2-27.8h-.1Z"/>
  <path class="cls-1" d="M116.51,175.24c-10.1,0-19-8.5-19.2-18.5-.2-10.2,8.4-18.6,18.8-18.7,10.2,0,19.4,9,19.4,19,0,9.4-9.2,18.1-19,18.2h0ZM117.81,149.54c-2.8-2-4.5-4.2-5.8-3.9-1.7.4-3.8,2.4-4.2,4.1-.2,1.1,2.4,3.9,3.8,3.9,1.7,0,3.3-2.1,6.2-4.1Z"/>
  <path class="cls-1" d="M208.81,126.94c8.5,0,16.1,7.5,16,15.9,0,7.8-7.6,15-15.7,15.1-8,0-15.9-7.9-16-16.1,0-7.7,7.4-14.9,15.7-14.9ZM210.71,137.54c-2.5-1.8-3.9-3.6-5-3.4-1.5.2-2.7,2-4.1,3.1,1.1,1.3,2.2,3.5,3.4,3.6,1.4.1,2.9-1.6,5.6-3.3h.1Z"/>
  <path class="cls-1" d="M258.11,143.54c-3.5,0-6.3-3.1-6-6.6.2-3.8,2.5-5.7,6.2-5.8,3.5-.1,6.5,2.9,6.4,6.2,0,3.4-3.1,6.3-6.6,6.2h0Z"/>
  <path class="cls-1" d="M35.41,115.44c-3.8-.4-5.8-3-5.9-6.6,0-3.8,2.3-5.7,6.1-5.7s6.8,3,6.4,6.7c-.4,3.6-2.7,5.5-6.5,5.7h0l-.1-.1Z"/>
  <path class="cls-1" d="M264.81,111.34c-4-.4-6-2.7-6.1-6.5-.1-3.6,2.7-6.2,6.4-6,4,.2,6.1,2.5,6,6.4,0,4-2.5,5.9-6.3,6.1h0Z"/>
  <path class="cls-1" d="M74.81,137.04c-4.1-.2-6-2.4-6.2-6-.2-3.7,2.5-6.5,6.1-6.3,3.9.2,6.3,2.3,6.3,6.3s-2.7,5.7-6.2,6.1v-.1Z"/>
  <g>
    <path class="cls-1" d="M443.18,291.4c-14.78-15.6-22.17-37.76-22.17-66.5,0-18.88,3.24-35.1,9.73-48.64,6.48-13.55,15.6-23.81,27.34-30.79,11.74-6.98,25.33-10.47,40.76-10.47,9.36,0,18.8,2.71,28.32,8.13,3.61,1.97,7.22,4.6,10.84,7.88,2.79-4.27,5.66-7.64,8.62-10.1,2.96-2.13,4.59-3.28,4.93-3.45h6.16v46.8h-9.85c-2.14-7.88-5.34-15.02-9.61-21.43-3.94-6.24-8.83-11.41-14.66-15.52-5.83-4.1-12.52-6.16-20.07-6.16-11.33,0-20.73,6.57-28.2,19.7-7.47,13.14-11.21,34.48-11.21,64.04s4.06,51.52,12.19,64.41c8.13,12.89,19.25,19.33,33.37,19.33,7.72,0,15.06-2.17,22.04-6.53,6.98-4.35,12.64-10.14,17-17.36,4.35-7.22,6.53-14.86,6.53-22.91h6.16c0,9.36-2.51,18.1-7.51,26.23-5.01,8.13-11.82,14.62-20.44,19.46-8.62,4.84-18.19,7.27-28.69,7.27-26.27,0-46.8-7.8-61.58-23.4Z"/>
    <path class="cls-1" d="M594.77,297.44c-11.58-11.58-17.36-27.54-17.36-47.91s5.79-36.33,17.36-47.91,27.54-17.36,47.91-17.36,36.33,5.79,47.91,17.36,17.36,27.55,17.36,47.91-5.79,36.33-17.36,47.91-27.55,17.36-47.91,17.36-36.33-5.79-47.91-17.36ZM659.31,296.08c4.51-9.19,6.77-24.71,6.77-46.55s-2.26-37.35-6.77-46.55c-4.52-9.19-10.06-13.79-16.63-13.79s-12.11,4.6-16.62,13.79c-4.52,9.2-6.77,24.71-6.77,46.55s2.26,37.36,6.77,46.55c4.51,9.2,10.06,13.79,16.62,13.79s12.11-4.59,16.63-13.79Z"/>
    <path class="cls-1" d="M727.65,307.41l14.78-3.69v-108.37l-14.78-3.69v-3.7h22.17c9.69,0,17.32,3.12,22.91,9.36,2.13,2.46,3.94,5.5,5.42,9.11,2.46-4.59,5.09-8.29,7.88-11.08,7.39-7.39,15.84-11.08,25.37-11.08s17.9,2.09,25.12,6.28c7.22,4.19,12.81,9.89,16.75,17.12,2.46-4.76,5.09-8.62,7.88-11.58,7.55-7.88,16.01-11.82,25.37-11.82,8.7,0,16.54,1.81,23.52,5.42,6.98,3.61,12.4,8.54,16.25,14.78,3.86,6.24,5.79,13.05,5.79,20.44v78.82l14.78,3.69v3.69h-32.02c-14.78,0-22.17-7.39-22.17-22.17v-64.04c0-10.67-1.64-18.68-4.93-24.01-3.29-5.33-6.98-8-11.08-8-4.76,0-9.61,3.29-14.53,9.85-1.97,3.12-3.7,6.4-5.17,9.85v91.13l14.78,3.69v3.69h-68.96v-3.69l14.78-3.69v-78.82c0-10.67-1.64-18.68-4.93-24.01-3.29-5.33-6.98-8-11.08-8-4.76,0-9.61,3.29-14.53,9.85-1.97,3.12-3.69,6.4-5.17,9.85v91.13l14.78,3.69v3.69h-68.96v-3.69Z"/>
    <path class="cls-1" d="M979.12,297.44c-11.66-11.58-17.49-27.54-17.49-47.91,0-13.3,2.54-24.88,7.64-34.73,5.09-9.85,12.19-17.4,21.3-22.66,9.11-5.25,19.58-7.88,31.4-7.88s22.21,2.22,31.16,6.65c8.95,4.43,15.84,10.39,20.69,17.86,4.84,7.47,7.27,15.72,7.27,24.75,0,4.11-.41,7.63-1.23,10.59l-1.23,4.19c-7.06,1.48-14.7,2.71-22.91,3.69-17.24,2.46-34.65,3.7-52.22,3.7,0,19.05,2.62,32.63,7.88,40.76,5.25,8.13,12.48,12.19,21.67,12.19,6.4,0,12.35-1.52,17.86-4.56,5.5-3.04,9.85-7.06,13.05-12.07,3.2-5.01,4.8-10.14,4.8-15.39h6.16c0,6.57-1.97,12.81-5.91,18.72-3.94,5.91-9.44,10.63-16.5,14.16-7.06,3.53-15.19,5.29-24.38,5.29-21.02,0-37.36-5.79-49.01-17.36ZM1029.12,248.3c2.79-.16,5.75-.57,8.87-1.23.16-.82.57-2.62,1.23-5.42.82-4.1,1.23-8.46,1.23-13.05,0-13.63-1.81-23.6-5.42-29.92-3.61-6.32-7.97-9.48-13.05-9.48-12.31,0-18.47,20.12-18.47,60.34,10.51,0,19.05-.41,25.62-1.23Z"/>
    <path class="cls-1" d="M1124.19,307.29c-7.55-5.01-13.55-12.4-17.98-22.17-4.43-9.77-6.65-21.63-6.65-35.59,0-21.02,4.88-37.15,14.66-48.4,9.77-11.25,22.94-16.87,39.53-16.87,7.88,0,14.78,1.64,20.69,4.93,2.46,1.15,5.01,2.79,7.63,4.93v-48.03l-14.78-3.7v-3.69h32.02c14.78,0,22.17,7.39,22.17,22.17v142.85l14.78,3.69v3.69h-22.17c-9.85,0-17.49-3.04-22.91-9.11-2.3-2.46-4.11-5.58-5.42-9.36-2.14,4.11-4.84,7.8-8.13,11.08-7.39,7.39-16.59,11.08-27.58,11.08-9.69,0-18.31-2.5-25.86-7.51ZM1176.4,296.33c1.8-2.46,3.69-5.75,5.67-9.85v-84.97c-1.81-1.8-3.69-3.45-5.67-4.93-4.43-3.28-8.71-4.93-12.81-4.93-7.06,0-12.52,4.11-16.38,12.31-3.86,8.21-5.79,23.4-5.79,45.57s1.76,35.92,5.3,44.21c3.53,8.29,7.92,12.44,13.18,12.44,6.07,0,11.58-3.28,16.5-9.85Z"/>
    <path class="cls-1" d="M1269.63,297.44c-11.58-11.58-17.36-27.54-17.36-47.91s5.79-36.33,17.36-47.91,27.54-17.36,47.91-17.36,36.33,5.79,47.91,17.36,17.36,27.55,17.36,47.91-5.79,36.33-17.36,47.91-27.55,17.36-47.91,17.36-36.33-5.79-47.91-17.36ZM1334.16,296.08c4.51-9.19,6.77-24.71,6.77-46.55s-2.26-37.35-6.77-46.55c-4.52-9.19-10.06-13.79-16.63-13.79s-12.11,4.6-16.62,13.79c-4.52,9.2-6.77,24.71-6.77,46.55s2.26,37.36,6.77,46.55c4.51,9.2,10.06,13.79,16.62,13.79s12.11-4.59,16.63-13.79Z"/>
  </g>
</svg>