<svg width="30" height="30" viewBox="0 0 30 30" fill="none" xmlns="http://www.w3.org/2000/svg">
<rect width="30" height="30" rx="15" fill="#DF3316"/>
<path d="M14.76 18.792C14.376 18.792 14.04 18.712 13.752 18.552C13.48 18.376 13.344 18.104 13.344 17.736C13.344 16.776 13.312 15.72 13.248 14.568C13.2 13.4 13.144 12.24 13.08 11.088C13.032 9.92 13.008 8.864 13.008 7.92C13.008 7.456 13.176 7.096 13.512 6.84C13.848 6.584 14.264 6.456 14.76 6.456C15.224 6.456 15.624 6.584 15.96 6.84C16.312 7.096 16.488 7.456 16.488 7.92C16.488 8.864 16.456 9.92 16.392 11.088C16.344 12.24 16.288 13.4 16.224 14.568C16.176 15.72 16.152 16.776 16.152 17.736C16.152 18.104 15.992 18.376 15.672 18.552C15.352 18.712 15.048 18.792 14.76 18.792ZM14.784 24.144C14.256 24.144 13.816 23.96 13.464 23.592C13.112 23.224 12.936 22.792 12.936 22.296C12.936 21.784 13.112 21.352 13.464 21C13.816 20.632 14.256 20.448 14.784 20.448C15.28 20.448 15.704 20.632 16.056 21C16.424 21.352 16.608 21.784 16.608 22.296C16.608 22.792 16.424 23.224 16.056 23.592C15.704 23.96 15.28 24.144 14.784 24.144Z" fill="white"/>
</svg>
