<svg width="46" height="46" viewBox="0 0 46 46" fill="none" xmlns="http://www.w3.org/2000/svg">
<circle cx="23" cy="23" r="23" fill="#FAFAFB"/>
<path d="M14.9722 29.096C14.7375 29.096 14.5135 29.048 14.3002 28.952C14.0975 28.856 13.9642 28.712 13.9002 28.52L10.7162 18.152C10.6949 18.088 10.6842 18.04 10.6842 18.008C10.6842 17.8693 10.7375 17.752 10.8442 17.656C10.9615 17.5493 11.1002 17.464 11.2602 17.4C11.4309 17.336 11.5909 17.304 11.7402 17.304C11.8895 17.304 12.0175 17.3307 12.1242 17.384C12.2309 17.4373 12.3002 17.528 12.3322 17.656L14.9722 26.776L17.5962 17.656C17.6389 17.528 17.7135 17.4373 17.8202 17.384C17.9269 17.3307 18.0495 17.304 18.1882 17.304C18.3482 17.304 18.5082 17.336 18.6682 17.4C18.8282 17.464 18.9615 17.5493 19.0682 17.656C19.1855 17.752 19.2442 17.8693 19.2442 18.008C19.2442 18.0293 19.2389 18.0507 19.2282 18.072C19.2282 18.0933 19.2282 18.12 19.2282 18.152L16.0602 28.52C15.9962 28.712 15.8575 28.856 15.6442 28.952C15.4415 29.048 15.2175 29.096 14.9722 29.096ZM21.2533 29C21.072 29 20.9013 28.952 20.7413 28.856C20.5813 28.76 20.5013 28.6213 20.5013 28.44V17.864C20.5013 17.6827 20.5813 17.544 20.7413 17.448C20.9013 17.352 21.072 17.304 21.2533 17.304H26.9493C27.152 17.304 27.296 17.384 27.3813 17.544C27.4666 17.704 27.5093 17.8693 27.5093 18.04C27.5093 18.2427 27.4613 18.424 27.3653 18.584C27.2693 18.7333 27.1306 18.808 26.9493 18.808H22.1973V22.472H24.6613C24.8426 22.472 24.9813 22.5413 25.0773 22.68C25.1733 22.8187 25.2213 22.9787 25.2213 23.16C25.2213 23.3093 25.1786 23.4587 25.0933 23.608C25.008 23.7467 24.864 23.816 24.6613 23.816H22.1973V27.496H26.9493C27.1306 27.496 27.2693 27.5707 27.3653 27.72C27.4613 27.8693 27.5093 28.0507 27.5093 28.264C27.5093 28.4347 27.4666 28.6 27.3813 28.76C27.296 28.92 27.152 29 26.9493 29H21.2533ZM32.1608 29.096C31.4781 29.096 30.8648 28.9787 30.3208 28.744C29.7875 28.5093 29.3608 28.1307 29.0408 27.608C28.7315 27.0853 28.5768 26.392 28.5768 25.528V20.872C28.5768 20.008 28.7315 19.3147 29.0408 18.792C29.3608 18.2693 29.7875 17.8907 30.3208 17.656C30.8648 17.4213 31.4621 17.304 32.1128 17.304C32.8381 17.304 33.4728 17.4267 34.0168 17.672C34.5608 17.9173 34.9875 18.2587 35.2968 18.696C35.6061 19.1333 35.7608 19.656 35.7608 20.264C35.7608 20.584 35.6861 20.8027 35.5368 20.92C35.3981 21.0267 35.1901 21.08 34.9128 21.08C34.6888 21.08 34.4915 21.0427 34.3208 20.968C34.1608 20.8827 34.0755 20.7333 34.0648 20.52C34.0328 20.2107 33.9581 19.928 33.8408 19.672C33.7235 19.4053 33.5315 19.1973 33.2648 19.048C32.9981 18.888 32.6301 18.808 32.1608 18.808C31.5635 18.808 31.0941 18.9787 30.7528 19.32C30.4221 19.6507 30.2568 20.168 30.2568 20.872V25.528C30.2568 26.232 30.4221 26.7547 30.7528 27.096C31.0941 27.4267 31.5635 27.592 32.1608 27.592C32.7475 27.592 33.2115 27.4267 33.5528 27.096C33.8941 26.7547 34.0648 26.232 34.0648 25.528V24.216H32.4488C32.2781 24.216 32.1448 24.1467 32.0488 24.008C31.9528 23.8693 31.9048 23.7093 31.9048 23.528C31.9048 23.368 31.9528 23.2187 32.0488 23.08C32.1448 22.9307 32.2781 22.856 32.4488 22.856H35.2008C35.3821 22.856 35.5208 22.9147 35.6168 23.032C35.7128 23.1387 35.7608 23.272 35.7608 23.432V25.528C35.7608 26.392 35.6008 27.0853 35.2808 27.608C34.9608 28.1307 34.5288 28.5093 33.9848 28.744C33.4408 28.9787 32.8328 29.096 32.1608 29.096Z" fill="#5A6242"/>
</svg>
