<svg width="46" height="53" viewBox="0 0 46 53" fill="none" xmlns="http://www.w3.org/2000/svg">
<circle cx="23" cy="23" r="23" fill="#FAFAFB"/>
<path d="M23.5034 29.096C23.2688 29.096 23.0448 29.048 22.8314 28.952C22.6288 28.856 22.4954 28.712 22.4314 28.52L19.2474 18.152C19.2261 18.088 19.2154 18.04 19.2154 18.008C19.2154 17.8693 19.2688 17.752 19.3754 17.656C19.4928 17.5493 19.6314 17.464 19.7914 17.4C19.9621 17.336 20.1221 17.304 20.2714 17.304C20.4208 17.304 20.5488 17.3307 20.6554 17.384C20.7621 17.4373 20.8314 17.528 20.8634 17.656L23.5034 26.776L26.1274 17.656C26.1701 17.528 26.2448 17.4373 26.3514 17.384C26.4581 17.3307 26.5808 17.304 26.7194 17.304C26.8794 17.304 27.0394 17.336 27.1994 17.4C27.3594 17.464 27.4928 17.5493 27.5994 17.656C27.7168 17.752 27.7754 17.8693 27.7754 18.008C27.7754 18.0293 27.7701 18.0507 27.7594 18.072C27.7594 18.0933 27.7594 18.12 27.7594 18.152L24.5914 28.52C24.5274 28.712 24.3888 28.856 24.1754 28.952C23.9728 29.048 23.7488 29.096 23.5034 29.096Z" fill="#5A6242"/>
</svg>
