<svg width="46" height="46" viewBox="0 0 46 46" fill="none" xmlns="http://www.w3.org/2000/svg">
<circle cx="23" cy="23" r="23" fill="#FAFAFB"/>
<path d="M23.4141 29.128C22.7207 29.128 22.1074 29.0267 21.5741 28.824C21.0407 28.6213 20.6247 28.376 20.3261 28.088C20.0274 27.7893 19.8781 27.5067 19.8781 27.24C19.8781 27.112 19.9101 26.9787 19.9741 26.84C20.0487 26.7013 20.1394 26.584 20.2461 26.488C20.3634 26.3813 20.4861 26.328 20.6141 26.328C20.7634 26.328 20.9021 26.392 21.0301 26.52C21.1687 26.6373 21.3341 26.7813 21.5261 26.952C21.7181 27.1227 21.9581 27.272 22.2461 27.4C22.5341 27.528 22.9021 27.592 23.3501 27.592C23.7341 27.592 24.0754 27.5333 24.3741 27.416C24.6834 27.288 24.9234 27.1013 25.0941 26.856C25.2754 26.6 25.3661 26.28 25.3661 25.896C25.3661 25.4907 25.2701 25.1547 25.0781 24.888C24.8967 24.6213 24.6461 24.3973 24.3261 24.216C24.0167 24.0347 23.6807 23.8693 23.3181 23.72C22.9554 23.5707 22.5874 23.4107 22.2141 23.24C21.8407 23.0693 21.4994 22.8667 21.1901 22.632C20.8807 22.3867 20.6301 22.0827 20.4381 21.72C20.2567 21.3467 20.1661 20.8827 20.1661 20.328C20.1661 19.7413 20.2727 19.2507 20.4861 18.856C20.7101 18.4613 21.0034 18.1467 21.3661 17.912C21.7287 17.6773 22.1287 17.512 22.5661 17.416C23.0034 17.3093 23.4354 17.256 23.8621 17.256C24.1287 17.256 24.4221 17.2773 24.7421 17.32C25.0727 17.352 25.3927 17.416 25.7021 17.512C26.0114 17.5973 26.2674 17.7147 26.4701 17.864C26.6727 18.0133 26.7741 18.1947 26.7741 18.408C26.7741 18.5147 26.7474 18.6427 26.6941 18.792C26.6407 18.9307 26.5607 19.0533 26.4541 19.16C26.3581 19.2667 26.2301 19.32 26.0701 19.32C25.9314 19.32 25.7767 19.272 25.6061 19.176C25.4354 19.0693 25.2114 18.968 24.9341 18.872C24.6674 18.7653 24.3101 18.712 23.8621 18.712C23.4781 18.712 23.1314 18.7653 22.8221 18.872C22.5234 18.9787 22.2887 19.1387 22.1181 19.352C21.9474 19.5547 21.8621 19.8267 21.8621 20.168C21.8621 20.5093 21.9527 20.792 22.1341 21.016C22.3261 21.2293 22.5767 21.416 22.8861 21.576C23.1954 21.7253 23.5314 21.8693 23.8941 22.008C24.2674 22.1467 24.6354 22.312 24.9981 22.504C25.3714 22.6853 25.7127 22.9093 26.0221 23.176C26.3421 23.4427 26.5927 23.784 26.7741 24.2C26.9661 24.6053 27.0621 25.112 27.0621 25.72C27.0621 26.488 26.9021 27.128 26.5821 27.64C26.2727 28.1413 25.8407 28.5147 25.2861 28.76C24.7421 29.0053 24.1181 29.128 23.4141 29.128Z" fill="#5A6242"/>
</svg>
