<svg width="46" height="46" viewBox="0 0 46 46" fill="none" xmlns="http://www.w3.org/2000/svg">
<circle cx="23" cy="23" r="23" fill="#FAFAFB"/>
<path d="M23.5905 29.096C22.9078 29.096 22.2945 28.9787 21.7505 28.744C21.2172 28.5093 20.7905 28.1307 20.4705 27.608C20.1612 27.0853 20.0065 26.392 20.0065 25.528V20.872C20.0065 20.008 20.1612 19.3147 20.4705 18.792C20.7905 18.2693 21.2172 17.8907 21.7505 17.656C22.2945 17.4213 22.8918 17.304 23.5425 17.304C24.2678 17.304 24.9025 17.4267 25.4465 17.672C25.9905 17.9173 26.4172 18.2587 26.7265 18.696C27.0358 19.1333 27.1905 19.656 27.1905 20.264C27.1905 20.584 27.1158 20.8027 26.9665 20.92C26.8278 21.0267 26.6198 21.08 26.3425 21.08C26.1185 21.08 25.9212 21.0427 25.7505 20.968C25.5905 20.8827 25.5052 20.7333 25.4945 20.52C25.4625 20.2107 25.3878 19.928 25.2705 19.672C25.1532 19.4053 24.9612 19.1973 24.6945 19.048C24.4278 18.888 24.0598 18.808 23.5905 18.808C22.9932 18.808 22.5238 18.9787 22.1825 19.32C21.8518 19.6507 21.6865 20.168 21.6865 20.872V25.528C21.6865 26.232 21.8518 26.7547 22.1825 27.096C22.5238 27.4267 22.9932 27.592 23.5905 27.592C24.1772 27.592 24.6412 27.4267 24.9825 27.096C25.3238 26.7547 25.4945 26.232 25.4945 25.528V24.216H23.8785C23.7078 24.216 23.5745 24.1467 23.4785 24.008C23.3825 23.8693 23.3345 23.7093 23.3345 23.528C23.3345 23.368 23.3825 23.2187 23.4785 23.08C23.5745 22.9307 23.7078 22.856 23.8785 22.856H26.6305C26.8118 22.856 26.9505 22.9147 27.0465 23.032C27.1425 23.1387 27.1905 23.272 27.1905 23.432V25.528C27.1905 26.392 27.0305 27.0853 26.7105 27.608C26.3905 28.1307 25.9585 28.5093 25.4145 28.744C24.8705 28.9787 24.2625 29.096 23.5905 29.096Z" fill="#5A6242"/>
</svg>
